/* XPM */
static char *key_delete[] = {
/* columns rows colors chars-per-pixel */
"13 13 115 2",
"   c #BC4903",
".  c #BD4A03",
"X  c #BD4708",
"o  c #BA5513",
"O  c #BE5F16",
"+  c #C54D02",
"@  c #C44E04",
"#  c #C4510A",
"$  c #C5530E",
"%  c #D35C00",
"&  c #C05111",
"*  c #C4581A",
"=  c #EA6E00",
"-  c #EE7612",
";  c #CC7027",
":  c #C67C2F",
">  c #D87331",
",  c #DA7A3A",
"<  c #BD812F",
"1  c #D5862F",
"2  c #C28D37",
"3  c #C08D38",
"4  c #CE9434",
"5  c #C9943E",
"6  c #D49A35",
"7  c #D6973F",
"8  c #EE923F",
"9  c #E1AD3E",
"0  c #F1CF34",
"q  c #F1D034",
"w  c #F2D23C",
"e  c #D78248",
"r  c #D69242",
"t  c #F29448",
"y  c #D6A24B",
"u  c #D4A548",
"i  c #D9A852",
"p  c #E2AF40",
"a  c #E4AE4C",
"s  c #E2B042",
"d  c #E4B34C",
"f  c #E0A450",
"g  c #E6B856",
"h  c #E6BA5A",
"j  c #E7BA5A",
"k  c #E1B95C",
"l  c #E2B95C",
"z  c #E1BA5E",
"x  c #E2BA5E",
"c  c #E7BC5E",
"v  c #E8BD5E",
"b  c #E8BD5F",
"n  c #FFA863",
"m  c #F0A26D",
"M  c #E7BE66",
"N  c #E8BF64",
"B  c #E5B86C",
"V  c #EFA274",
"C  c #EEA67C",
"Z  c #F0A678",
"A  c #FFB27E",
"S  c #F3D747",
"D  c #F3D749",
"F  c #F4DA4A",
"G  c #F4D94F",
"H  c #ECC658",
"J  c #F4D852",
"K  c #F5D954",
"L  c #F4D855",
"P  c #F5DC57",
"I  c #F1D05D",
"U  c #F4DA59",
"Y  c #F4DA5F",
"T  c #E9C065",
"R  c #E9C069",
"E  c #E9C16B",
"W  c #F3D867",
"Q  c #F5DD67",
"!  c #EBC67F",
"~  c #F2D371",
"^  c #F5DF72",
"/  c #F2DA75",
"(  c #F3DA7E",
")  c #F6E06F",
"_  c #F6E173",
"`  c #F6E278",
"'  c #F7E379",
"]  c #F7E47F",
"[  c #ECCA81",
"{  c #EDCD86",
"}  c #EFD282",
"|  c #F1D586",
" . c #F1D68D",
".. c #FAC490",
"X. c #FFC798",
"o. c #F1D499",
"O. c #F1D79F",
"+. c #F4DE9D",
"@. c #F7E582",
"#. c #F7E58D",
"$. c #F8E78F",
"%. c #F8E88E",
"&. c #F8E890",
"*. c #F8E997",
"=. c #F6E299",
"-. c #F6E69F",
";. c #F6E3A0",
":. c #F6E4A2",
">. c #F9ECA2",
",. c #F6E5AB",
"<. c #F6E6AE",
"1. c #FAEEAF",
"2. c #F9EDBB",
"3. c #FBF3CC",
"4. c None",
/* pixels */
"4.4.4.4.4.4.4.c T p 4.4.4.",
"4.4.4.4.4.4.b <.3.[ 9 4.4.",
"4.4.4.4.4.b ;.>.} O.! 6 4.",
"4.4.4.4.h ,.&.$. .g o.B 4 ",
"4.4.4.4.b 1.] @.*.=.W %.f ",
"4.4.4.4.h :.` ) ' Q D ~ r ",
"4.4.4.s E ( G P J D I 7 < ",
"4.4.{ +./ F K H a 1 ; O 4.",
"d g | _ w J k : e V m , & ",
"E 2.Y 0 K k 3 o C A n t $ ",
"T #.0 U k 2 4.X V X...t @ ",
"M -.^ k 2 4.4.4.> - = % . ",
"u i y 5 4.4.4.4.* # @   4."
};
