/* XPM */
static char *key_add[] = {
/* columns rows colors chars-per-pixel */
"13 13 114 2",
"   c #40761E",
".  c #417720",
"X  c #447923",
"o  c #46772A",
"O  c #4C7E2C",
"+  c #4D7E2D",
"@  c #7E7F33",
"#  c #4F802F",
"$  c #63983A",
"%  c #6C8740",
"&  c #689D43",
"*  c #71A547",
"=  c #BE812F",
"-  c #C38B37",
";  c #C28D37",
":  c #CE9434",
">  c #C9943E",
",  c #D49A35",
"<  c #D7963E",
"1  c #E1AD3E",
"2  c #F1CF34",
"3  c #F1D034",
"4  c #F2D23C",
"5  c #909C51",
"6  c #A69041",
"7  c #9FAE58",
"8  c #90B069",
"9  c #96BC78",
"0  c #D69242",
"q  c #D6A24B",
"w  c #D4A548",
"e  c #D9A852",
"r  c #E2AF40",
"t  c #E2B042",
"y  c #E4B34C",
"u  c #E0A450",
"i  c #E6B856",
"p  c #E6BA5A",
"a  c #E7BA5A",
"s  c #E1B95C",
"d  c #E2B85C",
"f  c #E1BA5E",
"g  c #E2BA5E",
"h  c #E7BC5E",
"j  c #E8BD5E",
"k  c #E8BD5F",
"l  c #E7BE66",
"z  c #E8BF64",
"x  c #E5B86C",
"c  c #9AC277",
"v  c #9CC47A",
"b  c #C8C05E",
"n  c #F3D747",
"m  c #F4D648",
"M  c #F4DA4A",
"N  c #F4D94F",
"B  c #EBC659",
"V  c #F2CF5C",
"C  c #F5D752",
"Z  c #F4D852",
"A  c #F5D954",
"S  c #F4D855",
"D  c #F5DC57",
"F  c #F4DA59",
"G  c #F4DA5F",
"H  c #E9C065",
"J  c #E9C069",
"K  c #E9C16B",
"L  c #F3D867",
"P  c #F5DD67",
"I  c #EBC67F",
"U  c #F2D371",
"Y  c #F5DF72",
"T  c #F2DA75",
"R  c #F3DA7E",
"E  c #F6E06F",
"W  c #F6E173",
"Q  c #F6E278",
"!  c #F7E379",
"~  c #F7E47F",
"^  c #A3C687",
"/  c #A6C88E",
"(  c #ADCD95",
")  c #AFD093",
"_  c #B0D094",
"`  c #ECCA81",
"'  c #EDCD86",
"]  c #EFD282",
"[  c #F1D586",
"{  c #F1D68D",
"}  c #F1D499",
"|  c #F1D79F",
" . c #F4DE9D",
".. c #F7E582",
"X. c #F7E58D",
"o. c #F8E78F",
"O. c #F8E88E",
"+. c #F8E890",
"@. c #F8E997",
"#. c #F6E299",
"$. c #F6E69F",
"%. c #F6E3A0",
"&. c #F6E4A2",
"*. c #F9ECA2",
"=. c #F6E5AB",
"-. c #F6E6AE",
";. c #FAEEAF",
":. c #F9EDBB",
">. c #D9ECC9",
",. c #D9EACD",
"<. c #DBEACF",
"1. c #FBF3CC",
"2. c #E9F2E2",
"3. c None",
/* pixels */
"3.3.3.3.3.3.3.h z r 3.3.3.",
"3.3.3.3.3.3.k -.1.` 1 3.3.",
"3.3.3.3.3.k %.*.[ } I , 3.",
"3.3.3.3.p =.+.o.{ i } x : ",
"3.3.3.3.k ;.~ ..@.#.L O.u ",
"3.3.3.3.p &.Q E ! P m U 0 ",
"3.3.3.t K R N D Z M V 0 = ",
"3.3.'  .T M A B b 7 5 @ 3.",
"y i [ W 4 Z s 6 8 ( / & . ",
"K :.G 2 A s - % ^ >.<.v + ",
"H X.2 F s ; 3.o 9 ,.2._ # ",
"l $.Y s ; 3.3.3.$ c _ * X ",
"w e q > 3.3.3.3.  + + X 3."
};
